<?xml version="1.0" standalone="no"?>
<!DOCTYPE svg PUBLIC "-//W3C//DTD SVG 20010904//EN"
 "http://www.w3.org/TR/2001/REC-SVG-20010904/DTD/svg10.dtd">
<svg version="1.0" xmlns="http://www.w3.org/2000/svg"
 width="235.000000pt" height="214.000000pt" viewBox="0 0 235.000000 214.000000"
 preserveAspectRatio="xMidYMid meet">
<metadata>
Created by potrace 1.16, written by Peter Selinger 2001-2019
</metadata>
<g transform="translate(0.000000,214.000000) scale(0.100000,-0.100000)"
fill="#000000" stroke="none">
<path d="M910 1889 c-266 -29 -459 -93 -581 -191 -33 -27 -39 -37 -39 -70 0
-58 -24 -106 -91 -174 -113 -119 -117 -182 -22 -386 69 -151 73 -202 33 -528
-5 -41 -9 -105 -10 -141 0 -58 4 -70 33 -112 61 -86 148 -132 278 -147 109
-13 213 -1 484 55 l219 45 281 136 c154 74 310 156 346 180 94 62 180 157 207
229 26 68 71 131 142 200 69 67 100 131 100 213 0 34 -7 79 -15 100 -9 21 -60
80 -118 137 -69 68 -108 114 -121 145 -64 155 -116 227 -205 285 l-38 25 -399
5 c-219 2 -437 0 -484 -6z m883 -58 c60 -29 103 -82 162 -201 26 -52 61 -114
77 -137 l29 -43 -63 -1 -63 -2 71 -6 c138 -13 238 -115 237 -242 -1 -70 -26
-121 -90 -179 -26 -25 -48 -48 -48 -52 0 -4 -13 -20 -30 -36 -18 -17 -42 -61
-58 -106 -49 -133 -164 -227 -437 -357 -80 -39 -198 -97 -262 -129 -100 -51
-124 -60 -170 -60 -33 0 -87 -11 -139 -29 -160 -54 -366 -79 -500 -61 -128 17
-207 60 -245 132 -18 35 -18 148 1 308 27 231 15 368 -40 452 l-24 37 37 -16
c20 -8 50 -22 66 -30 22 -12 27 -12 24 -1 -3 7 -23 20 -46 28 -55 21 -72 38
-83 89 -20 89 35 182 126 215 31 11 36 15 23 21 -25 10 -98 -33 -125 -74 -41
-61 -51 -132 -27 -208 3 -10 -2 -5 -12 12 -18 31 -24 121 -11 167 4 15 33 56
64 90 64 72 92 127 93 180 0 31 7 43 52 82 94 82 206 125 328 126 39 0 60 4
52 9 -12 7 98 20 373 45 22 2 168 3 325 2 276 -1 286 -2 333 -25z"/>
<path d="M1080 1754 c-101 -17 -279 -22 -405 -10 -85 8 -91 7 -115 -13 l-25
-22 31 17 c28 15 43 15 140 5 163 -17 277 -14 390 10 211 45 414 0 592 -132
l67 -50 -54 51 c-60 57 -158 110 -247 135 -84 23 -270 27 -374 9z"/>
<path d="M1307 1539 c-92 -22 -181 -89 -175 -132 2 -11 19 -33 39 -49 l37 -30
38 20 c105 52 215 67 354 48 71 -9 87 1 66 41 -22 45 -70 80 -128 98 -56 16
-170 18 -231 4z"/>
<path d="M607 1490 c-33 -10 -54 -26 -68 -52 -14 -25 15 -35 147 -48 59 -6
122 -17 141 -25 30 -13 33 -18 33 -54 0 -38 -4 -43 -85 -106 -47 -37 -109 -80
-138 -96 -61 -34 -48 -39 18 -7 44 21 45 22 59 3 12 -17 16 -17 30 -5 15 12
23 7 69 -37 83 -81 114 -88 142 -33 18 35 10 43 -25 25 -24 -12 -30 -12 -57 5
-37 22 -75 82 -67 103 3 9 26 28 50 42 l44 26 0 58 c0 55 2 59 30 71 33 14 56
37 46 47 -4 4 -24 6 -46 5 -22 -2 -40 2 -40 7 0 5 -28 24 -63 41 -67 33 -169
47 -220 30z"/>
<path d="M1844 1379 c-22 -4 -69 -22 -104 -41 -51 -26 -76 -33 -121 -33 -49 0
-64 5 -111 38 -63 43 -82 47 -73 15 11 -35 44 -66 84 -79 83 -28 255 -5 314
41 33 26 105 27 155 1 64 -33 91 -110 63 -179 -7 -16 -11 -43 -9 -58 l3 -29
28 41 c37 55 44 103 23 159 -36 92 -143 145 -252 124z"/>
<path d="M353 1321 c-22 -10 -49 -49 -40 -58 3 -2 22 0 44 6 60 17 110 14 133
-9 11 -11 20 -24 20 -30 0 -6 26 -10 59 -10 64 0 91 15 91 51 0 23 -18 24 -46
5 -18 -13 -26 -11 -80 15 -63 31 -145 45 -181 30z"/>
<path d="M1873 1299 c-6 -8 -13 -23 -15 -34 -4 -25 -204 -113 -416 -185 -379
-127 -663 -144 -856 -51 -98 47 -114 65 -123 141 -9 71 -31 89 -44 35 -4 -16
-20 -59 -35 -95 -25 -59 -27 -76 -26 -185 1 -192 43 -304 128 -344 23 -11 81
-28 130 -37 125 -25 479 -25 613 -1 226 42 441 174 554 342 22 33 60 86 84
117 24 31 43 66 43 78 0 45 17 60 71 60 60 0 57 8 -16 54 -42 27 -56 43 -67
76 -11 33 -16 39 -25 29z m7 -133 c0 -56 -90 -130 -182 -150 -28 -6 -28 -6
-27 41 l0 48 82 42 c96 49 127 54 127 19z m-260 -112 c0 -44 -55 -89 -146
-117 -43 -14 -86 -28 -95 -31 -13 -6 -18 3 -26 43 l-10 51 81 24 c45 14 104
31 131 40 66 20 65 20 65 -10z m-311 -121 c5 -27 7 -51 3 -54 -12 -10 -161
-39 -202 -39 l-40 0 0 45 c0 27 5 48 13 50 15 6 188 43 204 44 6 1 16 -20 22
-46z m322 -119 c7 -8 10 -16 8 -18 -22 -19 -188 -126 -195 -126 -9 1 -48 77
-59 117 -7 25 0 30 80 58 33 12 78 31 100 42 l40 21 7 -40 c4 -22 13 -47 19
-54z m-261 -124 c12 -23 20 -43 18 -45 -11 -12 -187 -55 -223 -55 l-42 0 -7
71 c-3 40 -5 74 -3 75 2 2 37 13 78 23 41 11 90 26 109 34 l35 15 7 -38 c4
-21 16 -57 28 -80z m-298 -32 c2 -40 2 -75 0 -78 -2 -3 -39 -7 -82 -8 l-77 -4
-7 48 c-4 27 -10 59 -13 72 -5 21 -2 22 53 23 33 1 70 5 84 9 14 4 28 8 32 9
3 1 8 -32 10 -71z"/>
</g>
</svg>
